<svg width="24" height="26" viewBox="0 0 24 26" fill="none" xmlns="http://www.w3.org/2000/svg">
<path d="M9.25 21.7501C3.875 23.5001 3.875 18.6251 1.75 18.0001M16.75 24.2501V19.8751C16.75 18.6251 16.875 18.1251 16.125 17.3751C19.625 17.0001 23 15.6251 23 9.87506C22.9985 8.38127 22.4157 6.9467 21.375 5.87506C21.8631 4.57752 21.8181 3.1396 21.25 1.87506C21.25 1.87506 19.875 1.50006 16.875 3.50006C14.334 2.8383 11.666 2.8383 9.125 3.50006C6.125 1.50006 4.75 1.87506 4.75 1.87506C4.18185 3.1396 4.13692 4.57752 4.625 5.87506C3.58432 6.9467 3.00152 8.38127 3 9.87506C3 15.6251 6.375 17.0001 9.875 17.3751C9.125 18.1251 9.125 18.8751 9.25 19.8751V24.2501" stroke="black" stroke-width="2" stroke-linecap="round" stroke-linejoin="round"/>
</svg>
