<svg width="22" height="22" viewBox="0 0 22 22" fill="none" xmlns="http://www.w3.org/2000/svg">
<path d="M11 16V9.75" stroke="black" stroke-width="2" stroke-linecap="round" stroke-linejoin="round"/>
<path d="M18.5 1H3.5C2.11929 1 1 2.11929 1 3.5V18.5C1 19.8807 2.11929 21 3.5 21H18.5C19.8807 21 21 19.8807 21 18.5V3.5C21 2.11929 19.8807 1 18.5 1Z" stroke="black" stroke-width="2" stroke-linecap="round" stroke-linejoin="round"/>
<path d="M6 9.75V16" stroke="black" stroke-width="2" stroke-linecap="round" stroke-linejoin="round"/>
<path d="M6 6V6.01" stroke="black" stroke-width="2" stroke-linecap="round" stroke-linejoin="round"/>
<path d="M16 16V12.25C16 11.587 15.7366 10.9511 15.2678 10.4822C14.7989 10.0134 14.163 9.75 13.5 9.75C12.837 9.75 12.2011 10.0134 11.7322 10.4822C11.2634 10.9511 11 11.587 11 12.25" stroke="black" stroke-width="2" stroke-linecap="round" stroke-linejoin="round"/>
</svg>
