<svg width="48" height="48" viewBox="0 0 48 48" fill="none" xmlns="http://www.w3.org/2000/svg">
<rect width="48" height="48" fill="#4D00AF"/>
<path d="M20.791 16.3594V32H17.2891V16.3594H20.791ZM30.1367 16.3594L24.0137 24.1797L20.4473 28.0469L19.8135 24.792L22.166 21.4189L25.8398 16.3594H30.1367ZM26.0762 32L21.7578 24.8564L24.4219 22.7832L30.2227 32H26.0762ZM31.3291 30.4102C31.3291 29.9232 31.501 29.515 31.8447 29.1855C32.1956 28.8561 32.6504 28.6914 33.209 28.6914C33.7747 28.6914 34.2259 28.8561 34.5625 29.1855C34.9062 29.515 35.0781 29.9232 35.0781 30.4102C35.0781 30.89 34.9062 31.2946 34.5625 31.624C34.2259 31.9535 33.7747 32.1182 33.209 32.1182C32.6504 32.1182 32.1956 31.9535 31.8447 31.624C31.501 31.2946 31.3291 30.89 31.3291 30.4102Z" fill="white"/>
</svg>
